<?xml version="1.0" encoding="UTF-8"?>
<svg width="760px" height="760px" viewBox="0 0 760 760" version="1.1" xmlns="http://www.w3.org/2000/svg" xmlns:xlink="http://www.w3.org/1999/xlink">
    <!-- Generator: Sketch 61.2 (89653) - https://sketch.com -->
    <title>pentas-logo-text</title>
    <desc>Created with Sketch.</desc>
    <defs>
        <path d="M236.901052,0 C356.428401,0 452.000747,102.492352 452.268826,236.66127 C452.530543,370.830188 354.123108,474.334999 236.901052,474.438866 L0,474.438866 L0,73.900135 C-4.99826335e-15,33.0862174 33.0862174,3.59191045e-14 73.900135,0 L236.901052,0 L236.901052,0 Z" id="path-1"></path>
        <linearGradient x1="87.6418405%" y1="0%" x2="12.3581595%" y2="100%" id="linearGradient-3">
            <stop stop-color="#15DAF4" offset="0%"></stop>
            <stop stop-color="#58068D" offset="100%"></stop>
        </linearGradient>
        <path d="M198.052362,0.00677791702 L198.052362,205.442375 C198.052362,238.093509 171.583388,264.562483 138.932254,264.562483 L133.518446,264.562483 L133.518446,264.562483 C65.2104091,264.297927 0,206.300703 0,132.284631 C0,58.2685581 58.5411627,-0.727364165 133.518446,0.00677791702 L198.052362,0.00677791702 Z" id="path-4"></path>
        <linearGradient x1="91.2893415%" y1="0%" x2="8.71065855%" y2="100%" id="linearGradient-6">
            <stop stop-color="#15DAF4" offset="0%"></stop>
            <stop stop-color="#58068D" offset="100%"></stop>
        </linearGradient>
        <linearGradient x1="50%" y1="0%" x2="50%" y2="100%" id="linearGradient-7">
            <stop stop-color="#15DAF4" offset="0%"></stop>
            <stop stop-color="#58068D" offset="100%"></stop>
        </linearGradient>
    </defs>
    <g id="pentas-logo-text" stroke="none" stroke-width="1" fill="none" fill-rule="evenodd">
        <g id="Group" transform="translate(0.000000, 11.000000)">
            <g id="Group-4">
                <g id="Rectangle" transform="translate(198.052362, 0.000000)">
                    <mask id="mask-2" fill="white">
                        <use xlink:href="#path-1"></use>
                    </mask>
                    <use id="Mask" fill="#FFFFFF" xlink:href="#path-1"></use>
                    <rect fill="url(#linearGradient-3)" mask="url(#mask-2)" x="-192.879352" y="0" width="644.409177" height="742.696356"></rect>
                </g>
                <g id="Rectangle" transform="translate(0.000000, 474.438866)">
                    <mask id="mask-5" fill="white">
                        <use xlink:href="#path-4"></use>
                    </mask>
                    <use id="Mask" fill="#FFFFFF" xlink:href="#path-4"></use>
                    <rect fill="url(#linearGradient-6)" mask="url(#mask-5)" x="0" y="-469.265857" width="666.850461" height="733.82834"></rect>
                </g>
            </g>
            <path d="M154.716854,475.018933 L198.897045,475.026983 L198.897045,679.881242 C198.897045,712.532376 172.428071,739.00135 139.776937,739.00135 L134.48373,739.00135 C84.0161783,738.805954 35.2426617,707.048024 13.3067553,660.60797 C56.2602127,594.108349 103.398396,532.247248 154.716854,475.018933 Z M650.320668,237.76512 C650.581896,371.639213 552.358365,474.916581 435.355375,475.02022 L198.897045,475.02022 L198.892574,427.950229 C320.154809,304.506887 462.761874,204.718937 626.713769,128.586378 L626.724726,128.590135 C641.7518,160.949294 650.241108,197.96008 650.320668,237.76512 Z" id="Combined-Shape" fill="url(#linearGradient-7)"></path>
        </g>
    </g>
</svg>